<svg width="50" height="40" viewBox="0 0 682 549" fill="none" xmlns="http://www.w3.org/2000/svg">
<path d="M318.933 2.33329C291.067 7.39996 267.067 19 249.067 36.0666C242.8 42.0666 241.333 44.2 241.333 47.6666C241.333 53.9333 245.2 58.2 250.933 58.2C254.533 58.2 257.333 56.6 264.267 50.7333C310.267 11.6666 373.467 11.9333 419.2 51.4C428.4 59.4 434.533 60.4666 438.8 55.1333C443.2 49.8 442.133 44.0666 435.733 37.6666C407.067 9.53329 359.2 -5.00004 318.933 2.33329Z" fill="#ECF01E"/>
<path d="M324.667 44.3334C307.867 47.4 290.267 56.0667 278.133 67.1334C270.667 73.9334 269.2 77.5334 271.467 83.6667C272.4 85.9334 278.667 89.6667 281.733 89.6667C282.8 89.6667 287.467 86.6 292.133 82.8667C322.4 58.4667 360.4 58.4667 390.667 82.8667C398 88.8667 399.867 89.8 403.333 89.1334C408.533 88.0667 412 83.8 412 78.3334C412 69.6667 390.533 54.0667 369.6 47.4C358.133 43.6667 336.133 42.2 324.667 44.3334Z" fill="#ECF01E"/>
<path d="M328.933 87C316.933 90.0667 302.4 100.067 300.8 106.333C299.867 110.2 302.8 116.867 306 118.2C310.667 119.933 315.2 118.867 321.2 114.467C328.4 109.267 334.533 107 341.333 107C348.133 107 354.267 109.267 361.467 114.467C370.267 120.867 377.067 120.467 380.8 113.533C383.467 108.333 382 103.933 376.267 98.8667C367.867 91.5333 356 86.8667 344.267 86.2C338.667 85.9333 331.733 86.3333 328.933 87Z" fill="#ECF01E"/>
<path d="M176 145.8C89.7333 156.867 22.2667 219.533 3.86665 305.667C1.19999 317.667 0.799988 323.667 0.799988 347C0.799988 370.333 1.19999 376.333 3.86665 388.333C13.2 431.8 33.3333 467.533 65.3333 497.133C91.6 521.4 123.467 537.667 161.333 545.933L175.333 549H341.333H507.333L521.333 545.933C602.8 528.067 661.467 469.267 678.8 388.333C681.333 376.333 681.867 370.333 681.867 347C681.867 323.667 681.333 317.533 678.8 305.667C661.6 225 603.333 166.6 522 148.2L508.667 145.133L346.667 144.867C257.6 144.733 180.8 145.133 176 145.8ZM239.333 169.4C293.733 181.133 340.133 216.867 364.933 266.067C367.467 271.133 371.867 282.333 374.667 290.867C387.2 328.333 386.933 368.467 373.867 405.933C364.4 433 350.4 455.4 330.533 475.133C271.333 534.067 180.4 545.133 108.933 502.067C65.3333 475.8 34.5333 431.4 24.4 380.6C21.2 364.467 21.2 329.267 24.4 313.4C39.7333 237.267 98.8 180.2 175.333 167.667C191.467 165.133 223.067 165.933 239.333 169.4ZM517.333 168.867C591.2 186.067 642.8 238.2 658.267 311C661.6 327 661.6 367 658.267 383C641.733 460.6 581.067 517.4 504 526.867C497.067 527.8 454.933 528.333 393.467 528.333H294.133L306.933 520.467C360.267 487.933 395.2 434.333 403.333 372.6C405.867 353.533 405.867 340.467 403.333 321.4C395.067 258.6 360.133 205.533 304.933 172.2L294 165.533L400.667 166.067C496.667 166.467 508.4 166.733 517.333 168.867Z" fill="#ECF01E"/>
<path d="M195.333 233C192.133 236.067 192 237.133 192 251C192 264.867 192.133 265.933 195.333 269C197.333 271.133 200.133 272.333 202.667 272.333C205.2 272.333 208 271.133 210 269C213.2 265.933 213.333 264.867 213.333 251C213.333 237.133 213.2 236.067 210 233C208 230.867 205.2 229.667 202.667 229.667C200.133 229.667 197.333 230.867 195.333 233Z" fill="#ECF01E"/>
<path d="M124.667 261.4C118.133 262.733 115.067 269 117.867 275.4C120.133 280.867 135.867 295.933 140.4 297C147.067 298.733 154.4 291.4 152.8 284.733C151.6 280.333 135.6 263.533 130.8 262.067C128.933 261.4 126.133 261.133 124.667 261.4Z" fill="#ECF01E"/>
<path d="M273.733 262.333C267.733 265 253.467 280.333 252.533 285.267C251.867 288.867 252.4 290.2 255.733 293.667C260.267 298.067 262.4 298.467 267.733 295.8C272.8 293.133 288 277 288.133 274.067C288.8 263.667 282.533 258.6 273.733 262.333Z" fill="#ECF01E"/>
<path d="M190.133 295C181.733 297.133 169.733 304.333 163.867 310.6C160.933 313.8 156.533 320.467 154.267 325.4C150.4 333.533 150 335.533 150 347.133C150 359.133 150.267 360.333 154.933 369.933C160.933 382.067 168.667 389.533 181.067 395.4C189.2 399.267 191.2 399.667 202.667 399.667C214.133 399.667 216.133 399.267 224.267 395.4C236.667 389.533 244.4 382.067 250.4 369.933C255.067 360.333 255.333 359.133 255.333 347C255.333 334.867 255.067 333.667 250.4 324.067C241.333 305.933 225.333 295.133 205.6 294.2C200 293.933 193.067 294.333 190.133 295ZM212.533 316.6C224 320.067 234.667 334.733 234.667 347C234.667 363.533 219.2 379 202.667 379C186.133 379 170.667 363.533 170.667 347C170.667 338.6 173.733 331.8 180.667 325C190 315.533 200 313 212.533 316.6Z" fill="#ECF01E"/>
<path d="M88.6666 339.667C86.5333 341.667 85.3333 344.467 85.3333 347C85.3333 349.533 86.5333 352.333 88.6666 354.333C91.7333 357.533 92.8 357.667 106.667 357.667C120.533 357.667 121.6 357.533 124.667 354.333C126.8 352.333 128 349.533 128 347C128 344.467 126.8 341.667 124.667 339.667C121.6 336.467 120.533 336.333 106.667 336.333C92.8 336.333 91.7333 336.467 88.6666 339.667Z" fill="#ECF01E"/>
<path d="M280.667 339.667C278.533 341.667 277.333 344.467 277.333 347C277.333 349.533 278.533 352.333 280.667 354.333C283.733 357.533 284.8 357.667 298.667 357.667C312.533 357.667 313.6 357.533 316.667 354.333C318.8 352.333 320 349.533 320 347C320 344.467 318.8 341.667 316.667 339.667C313.6 336.467 312.533 336.333 298.667 336.333C284.8 336.333 283.733 336.467 280.667 339.667Z" fill="#ECF01E"/>
<path d="M138 397.667C134 399.267 117.333 417 117.2 419.933C116.533 429.4 120.267 433.133 129.733 432.467C132.667 432.333 148.8 417.133 151.467 412.067C154.133 406.867 153.733 404.6 149.467 400.2C145.467 396.2 142.8 395.667 138 397.667Z" fill="#ECF01E"/>
<path d="M255.867 400.2C253.733 402.333 252 405.133 252 406.333C252 410.2 255.6 415.533 263.6 423.267C273.333 432.733 276.8 434.2 282.8 431.267C287.733 428.733 289.6 424.2 287.733 419C286.267 415 272.667 400.867 267.733 398.2C262.533 395.533 260.267 395.8 255.867 400.2Z" fill="#ECF01E"/>
<path d="M195.333 425C192.133 428.067 192 429.133 192 443C192 456.867 192.133 457.933 195.333 461C197.333 463.133 200.133 464.333 202.667 464.333C205.2 464.333 208 463.133 210 461C213.2 457.933 213.333 456.867 213.333 443C213.333 429.133 213.2 428.067 210 425C208 422.867 205.2 421.667 202.667 421.667C200.133 421.667 197.333 422.867 195.333 425Z" fill="#ECF01E"/>
<path d="M479.467 284.467C474.4 288.467 474.8 294.6 480.533 303C486.933 312.333 488.4 317.8 487.733 328.867C486.933 340.733 483.733 347.267 474.533 355.533C466.267 363 457.467 365.933 444.933 365.4C438 365.133 435.6 365.667 433.467 367.533C426.8 373.667 429.333 381.4 442 393.533C473.867 424.067 525.333 415.133 544.8 375.667C563.333 338.2 542.933 294.2 502 283.667C490.933 280.867 483.733 281.133 479.467 284.467ZM515.733 314.333C518.933 317.267 522.933 322.733 525.6 327.933C536.533 350.2 527.2 376.2 504.533 386.6C492.667 391.933 482 392.067 468.4 386.867C464.667 385.533 464.8 385.4 474.4 381C487.333 375 497.2 365 503.733 351.4C508.533 341.267 508.667 340.6 508.667 325.267C508.667 316.733 509.067 309.667 509.467 309.667C509.867 309.667 512.667 311.8 515.733 314.333Z" fill="#ECF01E"/>
</svg>
